<?xml version="1.0" standalone="no"?>
<!DOCTYPE svg PUBLIC "-//W3C//DTD SVG 20010904//EN"
 "http://www.w3.org/TR/2001/REC-SVG-20010904/DTD/svg10.dtd">
<svg version="1.0" xmlns="http://www.w3.org/2000/svg"
 width="594.000000pt" height="176.000000pt" viewBox="0 0 594.000000 176.000000"
 preserveAspectRatio="xMidYMid meet">

<g transform="translate(0.000000,176.000000) scale(0.100000,-0.100000)"
fill="#000000" stroke="none">
<path d="M705 1584 c-89 -22 -212 -86 -283 -146 -258 -219 -324 -596 -155
-888 21 -36 74 -102 119 -147 67 -67 98 -89 175 -127 306 -147 651 -71 862
189 102 127 147 260 147 435 0 137 -15 204 -69 315 -82 166 -220 287 -402 351
-62 23 -94 27 -204 30 -93 3 -147 -1 -190 -12z m316 -170 c248 -72 417 -330
380 -578 -5 -39 -16 -89 -24 -111 l-14 -40 -79 -4 c-155 -7 -207 -4 -201 14 2
5 -2 25 -10 43 -14 33 -13 34 9 27 19 -5 20 -4 8 5 -11 9 -12 13 -2 17 16 6
16 24 0 21 -8 -2 -11 8 -9 30 1 18 3 66 4 107 2 65 0 75 -15 75 -22 0 -22 4
-2 35 30 46 -9 91 -66 75 -22 -5 -25 -13 -28 -53 -2 -37 0 -47 12 -47 25 0 19
-18 -16 -50 -38 -34 -92 -41 -107 -12 -5 9 -12 55 -16 102 -5 59 -13 92 -26
109 -20 25 -17 44 5 35 7 -3 25 11 40 31 31 40 28 67 -10 91 -21 14 -27 15
-46 2 -13 -8 -35 -18 -50 -21 -36 -9 -70 -60 -74 -109 -1 -21 -11 -53 -21 -71
-11 -18 -25 -59 -32 -92 -7 -33 -19 -85 -27 -115 -14 -57 -10 -70 29 -70 19 0
25 -44 7 -55 -5 -3 -10 -24 -10 -45 0 -22 -5 -50 -11 -63 -10 -22 -15 -23
-119 -25 l-109 -1 -20 62 c-46 139 -36 274 30 407 65 129 169 219 309 267 81
28 228 31 311 7z m-193 -417 c6 -51 11 -61 25 -59 9 2 25 -2 36 -7 27 -15 16
-49 -17 -53 -19 -2 -33 -16 -51 -49 -45 -81 -56 -93 -75 -86 -13 5 -16 12 -11
25 5 9 10 32 13 50 2 17 8 32 13 32 5 0 9 26 9 58 0 57 16 168 28 186 8 14 21
-27 30 -97z m-136 -249 c-5 -72 -6 -75 -26 -59 -10 9 -12 20 -6 39 7 25 31 82
35 82 1 0 -1 -28 -3 -62z m313 43 c3 -6 -3 -14 -12 -20 -16 -9 -16 -10 4 -11
12 0 24 -4 28 -10 3 -5 11 -7 19 -4 7 3 18 -7 24 -21 11 -23 9 -26 -13 -35
-27 -10 -89 10 -99 32 -3 7 -3 3 0 -9 6 -26 5 -27 -29 -14 -13 5 -30 5 -37 1
-9 -5 -20 -4 -28 2 -10 9 -16 8 -22 -1 -5 -9 -10 -10 -14 -2 -6 10 15 61 36
89 12 14 134 17 143 3z m-299 -200 c17 -10 34 -28 37 -40 4 -18 1 -21 -23 -21
-16 0 -30 7 -34 16 -8 20 -60 15 -64 -7 -2 -12 10 -20 45 -28 61 -16 83 -36
83 -77 0 -74 -113 -103 -172 -44 -34 34 -33 54 4 58 19 2 27 -2 31 -18 5 -18
12 -21 44 -18 54 4 50 29 -9 48 -84 27 -111 75 -65 117 41 38 77 42 123 14z
m449 5 c31 -13 55 -41 55 -65 0 -19 -46 -12 -65 9 -25 27 -50 25 -74 -6 -40
-51 -17 -124 40 -124 22 0 32 7 41 25 8 18 19 25 39 25 27 0 27 -1 17 -30 -24
-70 -109 -93 -167 -44 -36 30 -52 80 -41 129 10 44 26 64 65 81 39 17 49 17
90 0z m-199 -29 c19 -22 24 -39 24 -82 0 -46 -5 -60 -29 -87 -27 -30 -32 -32
-102 -32 l-74 -1 -3 119 -3 118 82 -4 c74 -3 83 -6 105 -31z"/>
<path d="M830 480 c0 -68 1 -70 26 -70 40 0 63 18 70 55 9 51 -16 85 -61 85
l-35 0 0 -70z"/>
<path d="M2664 1249 c-3 -6 1 -18 10 -27 15 -15 17 -15 32 0 19 19 11 38 -16
38 -10 0 -22 -5 -26 -11z"/>
<path d="M3000 1120 c0 -133 1 -140 20 -140 19 0 20 7 20 140 0 133 -1 140
-20 140 -19 0 -20 -7 -20 -140z"/>
<path d="M3504 1249 c-3 -6 1 -18 10 -27 15 -15 17 -15 32 0 19 19 11 38 -16
38 -10 0 -22 -5 -26 -11z"/>
<path d="M4394 1249 c-3 -6 1 -18 10 -27 15 -15 17 -15 32 0 19 19 11 38 -16
38 -10 0 -22 -5 -26 -11z"/>
<path d="M5013 1245 c-13 -9 -23 -27 -23 -39 0 -15 -7 -26 -20 -29 -11 -3 -20
-12 -20 -21 0 -9 8 -16 20 -16 18 0 20 -7 20 -80 0 -73 2 -80 20 -80 18 0 20
7 20 80 0 79 0 80 25 80 18 0 25 5 25 20 0 15 -7 20 -25 20 -37 0 -35 38 3 42
34 4 36 32 2 36 -14 1 -35 -4 -47 -13z"/>
<path d="M2023 1230 c-12 -5 -30 -21 -39 -36 -28 -41 -4 -74 71 -99 46 -16 61
-25 63 -42 4 -26 -30 -39 -76 -30 -61 12 -67 12 -67 -3 0 -9 18 -21 42 -29 54
-19 108 -6 137 32 19 26 19 30 5 55 -10 19 -32 33 -74 47 -46 16 -61 25 -63
42 -4 27 30 38 87 29 29 -4 40 -2 45 9 9 26 -84 44 -131 25z"/>
<path d="M3210 1110 l0 -130 73 0 c100 0 156 28 177 88 13 37 13 47 0 85 -21
59 -77 87 -177 87 l-73 0 0 -130z m185 65 c19 -18 25 -35 25 -65 0 -62 -33
-90 -105 -90 l-55 0 0 90 0 90 55 0 c46 0 60 -4 80 -25z"/>
<path d="M4520 1201 c0 -10 -9 -21 -20 -24 -11 -3 -20 -12 -20 -21 0 -9 8 -16
20 -16 18 0 20 -7 20 -65 0 -58 3 -66 25 -81 29 -19 75 -12 75 11 0 10 -10 15
-30 15 l-30 0 0 60 c0 57 1 60 25 60 18 0 25 5 25 20 0 15 -7 20 -25 20 -18 0
-25 5 -25 20 0 13 -7 20 -20 20 -13 0 -20 -7 -20 -19z"/>
<path d="M2250 1168 c-14 -7 -33 -30 -43 -51 -18 -36 -18 -38 0 -74 22 -46 56
-65 106 -59 46 5 66 20 84 64 11 27 11 37 0 65 -8 17 -21 38 -30 45 -23 20
-88 25 -117 10z m92 -45 c38 -34 11 -103 -40 -103 -54 0 -81 62 -45 102 20 22
61 23 85 1z"/>
<path d="M2490 1167 c-38 -18 -63 -77 -50 -113 17 -43 39 -63 77 -70 37 -7 89
10 97 32 7 19 -22 30 -37 15 -32 -32 -97 2 -97 51 0 45 66 78 96 48 12 -12 44
-3 44 11 0 13 -55 39 -82 39 -13 0 -34 -6 -48 -13z"/>
<path d="M2670 1080 c0 -93 1 -100 20 -100 19 0 20 7 20 100 0 93 -1 100 -20
100 -19 0 -20 -7 -20 -100z"/>
<path d="M2793 1169 c-51 -15 -32 -35 34 -34 47 0 58 -3 61 -17 3 -15 -4 -18
-35 -18 -60 0 -88 -19 -88 -60 0 -45 40 -68 91 -52 20 6 34 6 34 1 0 -5 9 -9
20 -9 18 0 20 7 20 78 0 64 -3 82 -19 96 -23 21 -76 28 -118 15z m97 -119 c0
-10 -9 -24 -21 -30 -28 -16 -69 -4 -69 19 0 26 9 31 52 31 31 0 38 -4 38 -20z"/>
<path d="M3510 1080 c0 -93 1 -100 20 -100 19 0 20 7 20 100 0 93 -1 100 -20
100 -19 0 -20 -7 -20 -100z"/>
<path d="M3634 1080 c37 -90 43 -100 65 -98 20 3 30 17 58 83 47 113 48 115
25 115 -14 0 -26 -18 -47 -70 -15 -38 -31 -70 -35 -70 -4 0 -20 32 -35 70 -23
57 -32 70 -50 70 -22 0 -22 -2 19 -100z"/>
<path d="M3873 1170 c-57 -24 -75 -112 -32 -156 31 -30 93 -41 128 -22 35 19
22 33 -26 30 -42 -4 -83 11 -83 28 0 6 33 10 75 10 l75 0 0 29 c0 61 -77 107
-137 81z m87 -49 c15 -30 14 -31 -45 -31 -38 0 -55 4 -55 13 0 39 81 53 100
18z"/>
<path d="M4060 1080 c0 -93 1 -100 20 -100 18 0 20 7 20 60 0 62 21 100 55
100 8 0 15 9 15 20 0 24 -18 26 -48 4 -20 -14 -22 -14 -22 0 0 9 -9 16 -20 16
-19 0 -20 -7 -20 -100z"/>
<path d="M4228 1165 c-20 -11 -28 -23 -28 -44 0 -35 14 -47 69 -60 49 -11 56
-15 46 -31 -5 -8 -26 -11 -61 -8 -65 6 -82 -15 -28 -32 61 -20 134 8 134 50 0
24 -20 38 -71 53 -60 18 -59 42 1 42 39 0 71 17 58 31 -14 13 -96 13 -120 -1z"/>
<path d="M4400 1080 c0 -93 1 -100 20 -100 19 0 20 7 20 100 0 93 -1 100 -20
100 -19 0 -20 -7 -20 -100z"/>
<path d="M4630 1177 c0 -2 18 -45 40 -96 47 -108 46 -131 -6 -131 -40 0 -48
-26 -11 -35 43 -11 76 11 101 67 85 192 87 200 64 196 -16 -2 -28 -20 -48 -66
-15 -35 -30 -63 -35 -63 -5 0 -20 28 -35 63 -20 46 -32 64 -48 66 -12 2 -22 2
-22 -1z"/>
<path d="M5150 1168 c-14 -7 -33 -30 -43 -51 -18 -36 -18 -38 0 -74 22 -46 56
-65 106 -59 46 5 66 20 84 64 11 27 11 37 0 65 -8 17 -21 38 -30 45 -23 20
-88 25 -117 10z m92 -45 c22 -20 23 -61 1 -85 -34 -38 -103 -11 -103 40 0 54
62 81 102 45z"/>
<path d="M5350 1080 c0 -93 1 -100 20 -100 18 0 20 7 20 60 0 62 21 100 55
100 8 0 15 9 15 20 0 24 -18 26 -48 4 -20 -14 -22 -14 -22 0 0 9 -9 16 -20 16
-19 0 -20 -7 -20 -100z"/>
<path d="M2250 680 c0 -133 1 -140 20 -140 18 0 20 7 20 58 0 69 19 102 59
102 41 0 51 -17 51 -92 0 -61 2 -68 20 -68 18 0 20 7 20 78 0 66 -3 82 -20 97
-22 20 -70 25 -107 12 -22 -8 -23 -6 -23 42 0 44 -3 51 -20 51 -19 0 -20 -7
-20 -140z"/>
<path d="M2494 809 c-3 -6 1 -18 10 -27 15 -15 17 -15 32 0 19 19 11 38 -16
38 -10 0 -22 -5 -26 -11z"/>
<path d="M2610 680 c0 -133 1 -140 20 -140 19 0 20 7 20 140 0 133 -1 140 -20
140 -19 0 -20 -7 -20 -140z"/>
<path d="M2870 769 c0 -45 -2 -50 -17 -43 -10 4 -35 8 -56 8 -113 0 -123 -169
-11 -190 18 -3 42 -1 55 7 17 9 24 9 27 0 2 -6 12 -11 23 -11 18 0 19 9 19
140 0 133 -1 140 -20 140 -17 0 -20 -7 -20 -51z m-18 -86 c38 -34 11 -103 -40
-103 -54 0 -81 62 -45 102 20 22 61 23 85 1z"/>
<path d="M4830 769 c0 -45 -2 -50 -17 -43 -10 4 -35 8 -56 8 -113 0 -123 -169
-11 -190 18 -3 42 -1 55 7 17 9 24 9 27 0 2 -6 12 -11 23 -11 18 0 19 9 19
140 0 133 -1 140 -20 140 -17 0 -20 -7 -20 -51z m-18 -86 c22 -20 23 -61 1
-85 -34 -38 -103 -11 -103 40 0 54 62 81 102 45z"/>
<path d="M5314 809 c-3 -6 1 -18 10 -27 15 -15 17 -15 32 0 19 19 11 38 -16
38 -10 0 -22 -5 -26 -11z"/>
<path d="M2044 781 c-70 -32 -93 -117 -49 -185 34 -52 139 -69 191 -32 15 12
17 17 6 28 -10 10 -17 10 -32 0 -11 -6 -36 -12 -55 -12 -51 0 -85 36 -85 90 0
55 34 90 88 90 21 0 43 -5 49 -11 13 -13 43 -5 43 11 0 14 -61 40 -92 40 -13
0 -41 -9 -64 -19z"/>
<path d="M3710 670 l0 -130 25 0 c23 0 25 3 25 50 l0 50 60 0 c53 0 60 2 60
20 0 18 -7 20 -60 20 l-60 0 0 40 0 40 70 0 c63 0 70 2 70 20 0 19 -7 20 -95
20 l-95 0 0 -130z"/>
<path d="M5170 761 c0 -10 -9 -21 -20 -24 -11 -3 -20 -12 -20 -21 0 -9 8 -16
20 -16 18 0 20 -7 20 -65 0 -58 3 -66 25 -81 29 -19 75 -12 75 11 0 10 -10 15
-30 15 l-30 0 0 60 c0 57 1 60 25 60 18 0 25 5 25 20 0 15 -7 20 -25 20 -18 0
-25 5 -25 20 0 13 -7 20 -20 20 -13 0 -20 -7 -20 -19z"/>
<path d="M2500 640 c0 -93 1 -100 20 -100 19 0 20 7 20 100 0 93 -1 100 -20
100 -19 0 -20 -7 -20 -100z"/>
<path d="M2970 640 c0 -93 1 -100 20 -100 18 0 20 7 20 60 0 62 21 100 55 100
8 0 15 9 15 20 0 24 -18 26 -48 4 -20 -14 -22 -14 -22 0 0 9 -9 16 -20 16 -19
0 -20 -7 -20 -100z"/>
<path d="M3163 730 c-57 -24 -75 -112 -32 -156 31 -30 93 -41 128 -22 35 19
22 33 -26 30 -42 -4 -83 11 -83 28 0 6 33 10 75 10 l75 0 0 29 c0 61 -77 107
-137 81z m87 -49 c15 -30 14 -31 -45 -31 -38 0 -55 4 -55 13 0 39 81 53 100
18z"/>
<path d="M3350 640 c0 -93 1 -100 20 -100 18 0 20 7 20 58 0 69 19 102 59 102
41 0 51 -17 51 -92 0 -61 2 -68 20 -68 18 0 20 7 20 78 0 62 -4 82 -17 95 -29
25 -69 31 -103 14 -25 -13 -30 -13 -30 -1 0 8 -9 14 -20 14 -19 0 -20 -7 -20
-100z"/>
<path d="M3980 728 c-14 -7 -33 -30 -43 -51 -18 -36 -18 -38 0 -74 22 -46 56
-65 106 -59 46 5 66 20 84 64 11 27 11 37 0 65 -8 17 -21 38 -30 45 -23 20
-88 25 -117 10z m92 -45 c22 -20 23 -61 1 -85 -34 -38 -103 -11 -103 40 0 54
62 81 102 45z"/>
<path d="M4180 673 c0 -38 6 -79 13 -93 17 -34 66 -47 106 -27 26 13 31 13 31
1 0 -8 9 -14 20 -14 19 0 20 7 20 100 0 93 -1 100 -20 100 -18 0 -20 -7 -20
-58 0 -66 -19 -102 -55 -102 -41 0 -55 25 -55 96 0 57 -2 64 -20 64 -18 0 -20
-7 -20 -67z"/>
<path d="M4430 640 c0 -93 1 -100 20 -100 18 0 20 7 20 58 0 69 19 102 59 102
41 0 51 -17 51 -92 0 -61 2 -68 20 -68 18 0 20 7 20 78 0 62 -4 82 -17 95 -29
25 -69 31 -103 14 -25 -13 -30 -13 -30 -1 0 8 -9 14 -20 14 -19 0 -20 -7 -20
-100z"/>
<path d="M4963 729 c-51 -15 -32 -35 34 -34 47 0 58 -3 61 -17 3 -15 -4 -18
-35 -18 -60 0 -88 -19 -88 -60 0 -45 40 -68 91 -52 20 6 34 6 34 1 0 -5 9 -9
20 -9 18 0 20 7 20 78 0 64 -3 82 -19 96 -23 21 -76 28 -118 15z m97 -119 c0
-10 -9 -24 -21 -30 -28 -16 -69 -4 -69 19 0 26 9 31 52 31 31 0 38 -4 38 -20z"/>
<path d="M5320 640 c0 -93 1 -100 20 -100 19 0 20 7 20 100 0 93 -1 100 -20
100 -19 0 -20 -7 -20 -100z"/>
<path d="M5470 728 c-14 -7 -33 -30 -43 -51 -18 -36 -18 -38 0 -74 22 -46 56
-65 106 -59 46 5 66 20 84 64 11 27 11 37 0 65 -8 17 -21 38 -30 45 -23 20
-88 25 -117 10z m92 -45 c22 -20 23 -61 1 -85 -34 -38 -103 -11 -103 40 0 54
62 81 102 45z"/>
<path d="M5670 640 c0 -93 1 -100 20 -100 18 0 20 7 20 58 0 69 19 102 59 102
41 0 51 -17 51 -92 0 -61 2 -68 20 -68 18 0 20 7 20 78 0 62 -4 82 -17 95 -29
25 -69 31 -103 14 -25 -13 -30 -13 -30 -1 0 8 -9 14 -20 14 -19 0 -20 -7 -20
-100z"/>
</g>
</svg>
