<svg width="257" height="258" viewBox="0 0 257 258" fill="none" xmlns="http://www.w3.org/2000/svg">
    <path d="M181.85 193.096C159.006 216.199 135.924 238.965 106.401 228.321C94.8882 224.17 43.45 196.239 30.1607 146.295C16.8714 96.3519 46.0317 97.8373 77.7836 65.7251C109.536 33.613 145.903 28.5544 179.217 61.4951C193.955 76.0674 231.149 77.2777 234.768 109.551C239.568 152.368 199.556 175.19 181.85 193.096Z" fill="#E2E8F0"/>
    <path d="M48.6577 103.199C48.6577 99.9505 51.2911 97.3171 54.5395 97.3171H202.119C205.368 97.3171 208.001 99.9505 208.001 103.199V190.357C208.001 193.605 205.368 196.238 202.119 196.238H54.5395C51.2911 196.238 48.6577 193.605 48.6577 190.357V103.199Z" fill="#0C53A0"/>
    <path d="M193.564 107.762L128.329 165.518L63.0947 107.762V179.649H193.564V107.762Z" fill="#0C53A0"/>
    <path fill-rule="evenodd" clip-rule="evenodd" d="M127.798 166.118C128.102 166.387 128.558 166.387 128.862 166.118L194.096 108.363C194.428 108.069 194.459 107.562 194.165 107.231C193.871 106.899 193.365 106.868 193.033 107.162L128.33 164.446L63.6272 107.162C63.2955 106.868 62.7886 106.899 62.495 107.231C62.2014 107.562 62.2322 108.069 62.5639 108.363L127.798 166.118Z" fill="#E2E8F0"/>
    <path d="M179.105 173.328L131.812 138.584C129.74 137.062 126.919 137.062 124.847 138.584L77.5534 173.328C72.9742 176.692 75.3537 183.95 81.0357 183.95H175.623C181.305 183.95 183.685 176.692 179.105 173.328Z" fill="#0C53A0"/>
    <path fill-rule="evenodd" clip-rule="evenodd" d="M124.372 137.937C126.727 136.207 129.932 136.207 132.287 137.937L194.039 183.303L193.089 184.596L131.337 139.23C129.547 137.915 127.112 137.915 125.322 139.23L63.5698 184.596L62.6201 183.303L124.372 137.937Z" fill="#E2E8F0"/>
    <path d="M67.373 75.9287L55.268 79.3302L51.8664 91.4352L48.4648 79.3302L36.3599 75.9287L48.4648 72.5271L51.8664 60.4221L55.268 72.5271L67.373 75.9287Z" fill="#E2E8F0"/>
    <path d="M215.487 185.811L198.582 190.562L193.831 207.467L189.081 190.562L172.176 185.811L189.081 181.061L193.831 164.156L198.582 181.061L215.487 185.811Z" fill="#E2E8F0"/>
    <path d="M227.786 171.374C227.786 172.998 226.469 174.315 224.845 174.315C223.22 174.315 221.904 172.998 221.904 171.374C221.904 169.75 223.22 168.433 224.845 168.433C226.469 168.433 227.786 169.75 227.786 171.374Z" fill="#E2E8F0"/>
    <path d="M57.2133 213.082C57.2133 214.706 55.8967 216.023 54.2724 216.023C52.6482 216.023 51.3315 214.706 51.3315 213.082C51.3315 211.458 52.6482 210.141 54.2724 210.141C55.8967 210.141 57.2133 211.458 57.2133 213.082Z" fill="#E2E8F0"/>
    <path d="M218.696 212.814C218.696 215.767 216.302 218.161 213.349 218.161C210.395 218.161 208.001 215.767 208.001 212.814C208.001 209.861 210.395 207.467 213.349 207.467C216.302 207.467 218.696 209.861 218.696 212.814Z" fill="#E2E8F0"/>
    <path d="M71.6507 50.2629C71.6507 53.216 69.2568 55.61 66.3036 55.61C63.3505 55.61 60.9565 53.216 60.9565 50.2629C60.9565 47.3097 63.3505 44.9158 66.3036 44.9158C69.2568 44.9158 71.6507 47.3097 71.6507 50.2629Z" fill="#E2E8F0"/>
    <path d="M151.632 146.848C151.632 159.531 141.35 169.812 128.667 169.812C115.985 169.812 105.703 159.531 105.703 146.848C105.703 134.165 115.985 123.884 128.667 123.884C141.35 123.884 151.632 134.165 151.632 146.848Z" fill="#0C53A0"/>
    <path d="M128.33 119.775C113.572 119.775 101.594 131.752 101.594 146.51C101.594 161.268 113.572 173.246 128.33 173.246C143.088 173.246 155.065 161.268 155.065 146.51C155.065 131.752 143.088 119.775 128.33 119.775ZM121.084 157.98L111.486 148.382C110.444 147.339 110.444 145.655 111.486 144.612C112.529 143.569 114.213 143.569 115.256 144.612L122.983 152.312L141.377 133.918C142.419 132.875 144.104 132.875 145.146 133.918C146.189 134.96 146.189 136.645 145.146 137.687L124.854 157.98C123.838 159.022 122.127 159.022 121.084 157.98Z" fill="white"/>
</svg>