<?xml version="1.0" standalone="no"?>
<!DOCTYPE svg PUBLIC "-//W3C//DTD SVG 20010904//EN"
 "http://www.w3.org/TR/2001/REC-SVG-20010904/DTD/svg10.dtd">
<svg version="1.0" xmlns="http://www.w3.org/2000/svg"
 width="594.000000pt" height="176.000000pt" viewBox="0 0 594.000000 176.000000"
 preserveAspectRatio="xMidYMid meet">
<metadata>
Created by potrace 1.16, written by Peter Selinger 2001-2019
</metadata>
<g transform="translate(0.000000,176.000000) scale(0.100000,-0.100000)"
fill="#000000" stroke="none">
<path d="M741 1600 c-266 -56 -464 -235 -547 -495 -15 -48 -19 -90 -19 -205 0
-133 2 -151 28 -225 80 -226 270 -403 497 -460 103 -26 312 -17 408 17 146 52
274 153 355 277 57 87 74 124 99 223 17 69 20 102 15 203 -5 129 -30 221 -83
314 -30 52 -131 181 -142 181 -4 0 -23 14 -42 31 -50 44 -144 94 -225 119 -79
25 -269 36 -344 20z m263 -185 c176 -46 313 -173 374 -349 22 -64 24 -82 19
-186 -3 -75 -10 -129 -21 -155 -16 -37 -20 -40 -59 -42 -23 -1 -45 3 -49 9 -5
9 -11 8 -22 -1 -9 -7 -23 -11 -31 -7 -8 3 -15 1 -15 -5 0 -12 -69 -1 -89 15
-11 8 -13 8 -7 -1 4 -8 2 -11 -7 -7 -7 2 -14 10 -14 17 0 7 -3 23 -8 36 -7 23
-5 24 26 18 33 -5 33 -5 7 6 -30 12 -37 27 -13 27 8 0 15 5 15 10 0 6 -6 10
-14 10 -9 0 -14 12 -14 36 0 28 3 34 17 30 14 -5 14 -4 -1 8 -24 18 -25 108
-2 130 14 14 12 15 -15 10 -35 -7 -37 -3 -15 32 32 48 -23 102 -75 74 -17 -8
-21 -20 -21 -56 0 -30 5 -46 15 -50 24 -9 -43 -74 -76 -74 -42 0 -56 26 -64
120 -5 61 -13 92 -27 110 l-20 25 28 5 c20 4 34 16 48 43 22 43 17 62 -25 86
-21 12 -30 10 -79 -13 -58 -28 -87 -68 -94 -131 -1 -16 -10 -43 -18 -60 -8
-16 -21 -55 -28 -85 -6 -30 -18 -81 -27 -113 -16 -65 -12 -77 24 -77 23 0 25
-3 19 -27 -4 -16 -11 -50 -16 -78 -4 -27 -11 -58 -15 -67 -8 -20 -30 -24 -40
-8 -5 8 -11 8 -20 0 -8 -7 -21 -7 -38 -1 -14 5 -28 7 -32 3 -4 -4 -25 -7 -48
-7 -38 0 -41 3 -59 41 -44 100 -43 258 1 375 59 155 206 285 366 325 70 17
190 17 259 -1z m-175 -447 c1 -34 4 -38 29 -38 15 0 34 -5 42 -10 12 -7 12
-10 1 -10 -7 0 -11 -6 -8 -14 4 -10 -2 -16 -20 -18 -26 -3 -35 -14 -102 -126
-4 -7 -14 -10 -23 -7 -14 6 -14 12 3 60 10 30 19 76 19 103 0 49 16 154 27
182 8 19 31 -70 32 -122z m176 -178 c3 -5 -4 -11 -15 -15 -27 -9 -16 -25 12
-17 14 3 19 2 14 -6 -12 -20 5 -35 18 -17 11 16 14 15 30 -9 16 -26 16 -27 -5
-34 -34 -13 -92 11 -103 42 -6 14 -13 26 -18 26 -12 0 -10 -14 7 -36 21 -28
18 -35 -11 -24 -17 7 -32 7 -44 0 -13 -7 -21 -7 -25 0 -4 6 -13 9 -20 8 -20
-4 -19 12 5 54 21 37 21 37 85 37 36 -1 67 -5 70 -9z m-287 -206 c30 -20 30
-54 -2 -54 -13 0 -26 7 -30 15 -3 9 -18 15 -36 15 -23 0 -30 -4 -30 -20 0 -14
11 -22 43 -30 63 -17 87 -36 87 -69 0 -16 -9 -39 -19 -52 -16 -20 -29 -24 -74
-24 -62 0 -97 22 -97 62 0 31 26 30 56 -2 26 -28 56 -32 74 -10 17 21 -1 41
-44 49 -42 8 -86 41 -86 65 0 26 37 69 63 74 30 5 67 -2 95 -19z m211 2 c34
-18 51 -54 51 -112 0 -37 -6 -51 -29 -75 -27 -27 -35 -29 -100 -29 l-71 0 0
115 0 115 60 0 c34 0 73 -6 89 -14z m255 -12 c14 -15 26 -33 26 -40 0 -21 -43
-17 -63 6 -54 63 -130 -38 -81 -108 21 -31 75 -27 89 6 13 28 55 31 55 3 0
-11 -11 -33 -24 -48 -21 -24 -32 -28 -76 -28 -46 0 -55 4 -81 33 -23 26 -29
42 -29 78 0 82 37 123 111 124 37 0 52 -5 73 -26z"/>
<path d="M4996 1238 c-9 -12 -16 -30 -16 -40 0 -10 -7 -18 -15 -18 -8 0 -15
-9 -15 -20 0 -11 7 -20 15 -20 12 0 15 -16 15 -80 0 -79 0 -80 25 -80 25 0 25
1 25 80 l0 80 30 0 c23 0 30 4 30 20 0 16 -7 20 -30 20 -16 0 -30 4 -30 9 0
15 29 33 41 26 6 -4 15 -1 20 6 18 29 9 39 -35 39 -35 0 -48 -5 -60 -22z"/>
<path d="M1996 1219 c-19 -15 -26 -30 -26 -53 0 -40 21 -60 80 -77 75 -21 90
-42 43 -60 -20 -7 -39 -6 -72 5 -25 8 -46 14 -47 13 -1 -1 -4 -11 -8 -23 -8
-28 28 -44 98 -44 68 0 106 26 106 74 0 40 -21 60 -80 77 -57 16 -79 34 -62
51 11 11 40 13 102 6 35 -4 42 37 8 46 -50 13 -115 6 -142 -15z"/>
<path d="M3210 1110 l0 -130 85 0 c129 0 175 35 175 130 0 95 -46 130 -175
130 l-85 0 0 -130z m155 75 c68 -28 70 -115 5 -147 -19 -10 -52 -18 -72 -18
l-38 0 0 90 0 90 35 0 c20 0 51 -7 70 -15z"/>
<path d="M4510 1205 c0 -16 -6 -25 -15 -25 -8 0 -15 -9 -15 -20 0 -11 7 -20
15 -20 12 0 15 -13 15 -58 0 -76 18 -102 70 -102 21 0 41 4 44 9 10 16 -6 42
-22 36 -26 -10 -42 15 -42 66 0 48 1 49 30 49 22 0 30 5 30 18 0 9 18 -23 40
-72 22 -48 40 -96 40 -106 0 -23 -26 -33 -50 -20 -15 8 -20 6 -25 -10 -3 -11
-3 -24 0 -30 9 -14 78 -12 98 3 9 6 41 67 71 135 l54 122 -28 0 c-25 0 -31 -7
-56 -67 l-28 -66 -30 66 -29 67 -58 0 c-56 0 -59 1 -59 25 0 20 -5 25 -25 25
-20 0 -25 -5 -25 -25z"/>
<path d="M2219 1151 c-23 -23 -29 -38 -29 -71 0 -33 6 -48 29 -71 25 -25 37
-29 81 -29 44 0 56 4 81 29 41 41 41 101 0 142 -25 25 -37 29 -81 29 -44 0
-56 -4 -81 -29z"/>
<path d="M2459 1151 c-23 -23 -29 -38 -29 -71 0 -61 41 -100 105 -100 51 0 79
11 88 35 10 25 -28 38 -57 20 -28 -19 -58 -9 -76 25 -13 24 0 54 31 70 16 9
26 8 45 -5 29 -18 67 -5 57 20 -9 24 -37 35 -88 35 -38 0 -52 -5 -76 -29z"/>
<path d="M2776 1167 c-22 -16 -11 -51 13 -42 43 17 68 16 86 -2 18 -17 17 -18
-36 -21 -81 -5 -111 -45 -74 -100 14 -19 24 -21 95 -20 l80 1 0 72 c0 99 -20
125 -94 125 -29 0 -60 -6 -70 -13z"/>
<path d="M3594 1163 c3 -10 21 -54 39 -98 31 -73 37 -80 64 -83 29 -3 32 0 67
82 20 47 39 92 42 101 5 11 -1 15 -21 15 -23 0 -30 -8 -52 -60 -15 -33 -30
-60 -34 -60 -4 0 -18 27 -31 60 -20 54 -26 60 -51 60 -22 0 -27 -4 -23 -17z"/>
<path d="M3839 1151 c-23 -23 -29 -38 -29 -71 0 -61 41 -100 105 -100 52 0 85
14 85 35 0 22 -19 28 -49 16 -19 -9 -35 -9 -54 -2 -49 19 -30 31 48 31 69 0
75 2 75 20 0 29 -27 78 -49 90 -11 5 -38 10 -61 10 -33 0 -48 -6 -71 -29z"/>
<path d="M4210 1160 c-44 -44 -16 -91 63 -104 23 -5 37 -12 34 -19 -4 -13 -50
-15 -84 -4 -17 6 -23 3 -28 -14 -9 -29 8 -39 70 -39 62 0 95 20 95 59 0 35
-15 48 -65 59 -21 4 -40 13 -43 20 -6 18 27 27 60 14 24 -9 30 -8 39 10 15 28
-2 38 -68 38 -40 0 -58 -5 -73 -20z"/>
<path d="M5119 1151 c-23 -23 -29 -38 -29 -71 0 -33 6 -48 29 -71 25 -25 37
-29 81 -29 44 0 56 4 81 29 23 23 29 38 29 71 0 33 -6 48 -29 71 -25 25 -37
29 -81 29 -44 0 -56 -4 -81 -29z"/>
<path d="M2250 680 l0 -140 25 0 c24 0 25 2 25 64 0 56 3 67 22 80 29 20 34
20 58 -4 16 -16 20 -33 20 -80 0 -57 1 -60 25 -60 24 0 25 2 25 74 0 60 -4 78
-22 101 -19 25 -26 27 -75 23 l-53 -5 0 44 c0 39 -2 43 -25 43 l-25 0 0 -140z"/>
<path d="M2870 777 l0 -44 -55 5 c-50 4 -57 2 -85 -26 -42 -42 -42 -101 -1
-143 27 -27 33 -28 110 -27 l81 1 0 138 0 139 -25 0 c-23 0 -25 -4 -25 -43z"/>
<path d="M4830 777 l0 -44 -55 5 c-50 4 -57 2 -85 -26 -42 -42 -42 -101 -1
-143 27 -27 33 -28 110 -27 l81 1 0 138 0 139 -25 0 c-23 0 -25 -4 -25 -43z"/>
<path d="M2028 784 c-80 -43 -77 -188 4 -230 40 -21 141 -15 165 9 16 15 16
19 2 32 -14 14 -19 14 -53 0 -35 -15 -40 -15 -74 2 -68 33 -66 120 3 149 31
13 39 12 71 -1 28 -11 40 -12 50 -4 21 17 17 27 -16 44 -37 19 -117 19 -152
-1z"/>
<path d="M3710 670 l0 -130 25 0 c23 0 25 3 25 50 l0 50 65 0 c58 0 65 2 65
20 0 18 -7 20 -65 20 l-65 0 0 40 0 40 70 0 c63 0 70 2 70 20 0 19 -7 20 -95
20 l-95 0 0 -130z"/>
<path d="M5160 765 c0 -16 -6 -25 -15 -25 -8 0 -15 -9 -15 -20 0 -11 7 -20 15
-20 12 0 15 -13 15 -58 0 -76 18 -102 70 -102 21 0 41 4 44 9 10 16 -6 42 -22
36 -26 -10 -42 15 -42 66 0 48 1 49 30 49 23 0 30 4 30 20 0 16 -7 20 -30 20
-25 0 -30 4 -30 25 0 20 -5 25 -25 25 -20 0 -25 -5 -25 -25z"/>
<path d="M3129 711 c-23 -23 -29 -38 -29 -71 0 -61 41 -100 105 -100 52 0 85
14 85 35 0 22 -19 28 -49 16 -19 -9 -35 -9 -54 -2 -49 19 -30 31 48 31 69 0
75 2 75 20 0 29 -27 78 -49 90 -11 5 -38 10 -61 10 -33 0 -48 -6 -71 -29z"/>
<path d="M3350 639 c0 -99 0 -99 25 -99 24 0 25 2 25 64 0 56 3 67 22 80 29
20 34 20 58 -4 16 -16 20 -33 20 -80 0 -57 1 -60 25 -60 24 0 25 2 25 74 0 59
-4 78 -21 99 -19 25 -25 26 -100 25 l-79 -1 0 -98z"/>
<path d="M3949 711 c-23 -23 -29 -38 -29 -71 0 -33 6 -48 29 -71 25 -25 37
-29 81 -29 44 0 56 4 81 29 23 23 29 38 29 71 0 33 -6 48 -29 71 -25 25 -37
29 -81 29 -44 0 -56 -4 -81 -29z"/>
<path d="M4180 660 c0 -108 11 -120 115 -119 l75 1 0 99 c0 99 0 99 -25 99
-24 0 -25 -2 -25 -64 0 -56 -3 -67 -22 -80 -28 -20 -33 -20 -52 0 -11 11 -16
35 -16 80 0 62 -1 64 -25 64 -25 0 -25 -1 -25 -80z"/>
<path d="M4430 639 c0 -99 0 -99 25 -99 24 0 25 2 25 64 0 56 3 67 22 80 29
20 34 20 58 -4 16 -16 20 -33 20 -80 0 -57 1 -60 25 -60 24 0 25 2 25 74 0 59
-4 78 -21 99 -19 25 -25 26 -100 25 l-79 -1 0 -98z"/>
<path d="M4946 727 c-22 -16 -11 -51 13 -42 43 17 68 16 86 -2 18 -17 17 -18
-36 -21 -81 -5 -111 -45 -74 -100 14 -19 24 -21 95 -20 l80 1 0 72 c0 99 -20
125 -94 125 -29 0 -60 -6 -70 -13z"/>
<path d="M5439 711 c-23 -23 -29 -38 -29 -71 0 -33 6 -48 29 -71 25 -25 37
-29 81 -29 44 0 56 4 81 29 23 23 29 38 29 71 0 33 -6 48 -29 71 -25 25 -37
29 -81 29 -44 0 -56 -4 -81 -29z"/>
<path d="M5670 639 c0 -99 0 -99 25 -99 24 0 25 2 25 64 0 56 3 67 22 80 29
20 34 20 58 -4 16 -16 20 -33 20 -80 0 -57 1 -60 25 -60 24 0 25 2 25 74 0 59
-4 78 -21 99 -19 25 -25 26 -100 25 l-79 -1 0 -98z"/>
</g>
</svg>
