<svg width="87" height="87" viewBox="0 0 87 87" fill="none" xmlns="http://www.w3.org/2000/svg">
    <g opacity="0.1">
    <path d="M70.1438 36.395C67.6787 23.8888 56.695 14.5 43.5 14.5C33.0238 14.5 23.925 20.445 19.3937 29.145C8.4825 30.305 0 39.5487 0 50.75C0 62.7487 9.75125 72.5 21.75 72.5H68.875C78.88 72.5 87 64.38 87 54.375C87 44.805 79.5687 37.0475 70.1438 36.395ZM68.875 65.25H21.75C13.7387 65.25 7.25 58.7612 7.25 50.75C7.25 43.3188 12.7963 37.12 20.155 36.3587L24.0338 35.96L25.8463 32.5163C29.29 25.8825 36.0325 21.75 43.5 21.75C52.9975 21.75 61.19 28.4925 63.0387 37.8088L64.1263 43.2463L69.6725 43.645C75.3275 44.0075 79.75 48.7562 79.75 54.375C79.75 60.3563 74.8562 65.25 68.875 65.25ZM29 47.125H38.2438V58H48.7562V47.125H58L43.5 32.625L29 47.125Z" fill="#0C53A0"/>
    </g>
</svg>