<svg width="429" height="361" viewBox="0 0 429 361" fill="none" xmlns="http://www.w3.org/2000/svg">
<path d="M29.25 0C13.563 0 0 12.1895 0 27.8789V264.469C0 280.158 13.563 292.5 29.25 292.5H160.57C160.098 303.712 158.822 313.698 156 321.598C152.569 331.2 147.683 337.399 139.09 341.25H121.875C116.49 341.25 112.125 345.615 112.125 351C112.125 356.385 116.49 360.75 121.875 360.75H307.125C312.51 360.75 316.875 356.385 316.875 351C316.875 345.615 312.51 341.25 307.125 341.25H289.91C281.317 337.399 276.431 331.2 273 321.598C270.178 313.698 268.902 303.712 268.43 292.5H399.75C415.437 292.5 429 280.158 429 264.469V27.8789C429 12.1895 415.437 0 399.75 0H29.25ZM29.25 19.5H399.75C405.669 19.5 409.5 23.4027 409.5 27.8789V264.469C409.5 268.945 405.669 273 399.75 273H29.25C23.331 273 19.5 268.945 19.5 264.469V27.8789C19.5 23.4027 23.331 19.5 29.25 19.5ZM180.07 292.5H248.93C249.394 305.123 250.798 317.175 254.719 328.148C256.361 332.744 258.583 337.188 261.27 341.25H167.73C170.416 337.188 172.639 332.744 174.281 328.148C178.202 317.175 179.606 305.123 180.07 292.5Z" fill="#42526E"/>
<path d="M168.317 97.3901C162.097 97.3901 157 102.487 157 108.707V165.293C157 171.513 162.097 176.61 168.317 176.61H261.683C267.903 176.61 273 171.513 273 165.293V108.707C273 102.487 267.903 97.3901 261.683 97.3901H168.317ZM168.317 103.049H261.683C262.5 103.049 263.243 103.239 263.938 103.535L218.537 144.073C216.392 145.988 213.7 145.988 211.552 144.073L166.062 103.535C166.757 103.239 167.5 103.049 168.317 103.049ZM162.703 108.133L195.239 137.133L163.277 167.857C162.904 167.095 162.659 166.216 162.659 165.293V108.707C162.659 108.509 162.684 108.325 162.702 108.133H162.703ZM267.297 108.133C267.316 108.325 267.341 108.509 267.341 108.707V165.293C267.341 166.216 267.096 167.095 266.722 167.857L234.849 137.088L267.297 108.133H267.297ZM230.605 140.89L261.816 170.951C261.77 170.952 261.728 170.951 261.683 170.951H168.317C168.272 170.951 168.229 170.952 168.184 170.951L199.483 140.934L207.794 148.317C211.933 152.007 218.155 152.013 222.294 148.317L230.605 140.89H230.605Z" fill="#FFAB00"/>
</svg>
